<?xml version="1.0" encoding="utf-8"?>
<!-- Generator: Adobe Illustrator 26.0.0, SVG Export Plug-In . SVG Version: 6.00 Build 0)  -->
<svg version="1.1" id="Camada_1" xmlns="http://www.w3.org/2000/svg" xmlns:xlink="http://www.w3.org/1999/xlink" x="0px" y="0px"
	 viewBox="0 0 2488.8 2500" style="enable-background:new 0 0 2488.8 2500;" xml:space="preserve">
<style type="text/css">
	.st0{fill:#E0E0E0;}
	.st1{display:none;fill:url(#SVGID_1_);}
	.st2{fill-rule:evenodd;clip-rule:evenodd;fill:#FFFFFF;}
	.st3{fill:#FFFFFF;}
</style>
<path class="st0" d="M2126.2,363.3C1892.2,129.2,1581.1,0.1,1249.6,0C566.6,0,10.7,555.7,10.4,1238.7
	c-0.3,217.4,56.8,431,165.4,619.3L0,2500l656.9-172.3c181.7,98.9,385.3,150.8,592.2,150.8h0.5c683,0,1238.9-555.8,1239.2-1238.8
	C2488.9,908.7,2360.1,597.5,2126.2,363.3L2126.2,363.3z M1249.6,2269.3h-0.4c-184.5,0-365.5-49.6-524.2-143.5l-37.6-22.3
	l-389.8,102.2l104.1-379.9l-24.5-39c-103.1-164-157.5-353.4-157.5-548C219.8,671.1,681.9,209.2,1250,209.2
	c275.1,0.1,533.7,107.4,728.2,302s301.5,453.3,301.4,728.5C2279.4,1807.4,1817.3,2269.3,1249.6,2269.3L1249.6,2269.3z"/>
<linearGradient id="SVGID_1_" gradientUnits="userSpaceOnUse" x1="1575.4363" y1="378.1644" x2="1575.4363" y2="-791.3307" gradientTransform="matrix(2.04 0 0 2.04 -1969.47 1657.3146)">
	<stop  offset="0" style="stop-color:#89C5CC"/>
	<stop  offset="1" style="stop-color:#89C5CC"/>
</linearGradient>
<path class="st1" d="M56.9,2428.8l167.8-612.6c-103.7-179.7-158.1-383.5-157.9-591C67.1,573.3,597.5,43,1249.4,43
	c316.4,0.2,613.3,123.3,836.5,346.7s346.2,520.5,346,836.4c-0.3,651.8-530.8,1182.2-1182.5,1182.2h-0.5
	c-197.4,0-391.7-49.5-565.1-143.9L56.9,2428.8z"/>
<path class="st2" d="M943.4,712.8c-22.9-51-47.1-52-68.9-52.9c-17.8-0.8-38.3-0.7-58.7-0.7s-53.6,7.7-81.6,38.3
	S627.1,802.2,627.1,952.8s109.7,296.1,125,316.6s211.8,339.3,522.9,462c258.6,102,311.2,81.7,367.3,76.6s181.1-74,206.6-145.5
	s25.5-132.7,17.9-145.5s-28.1-20.4-58.7-35.7s-181.1-89.4-209.1-99.6s-48.5-15.3-68.9,15.3s-79,99.5-96.9,119.9s-35.7,23-66.3,7.7
	s-129.2-47.6-246.1-151.9c-91-81.1-152.4-181.3-170.3-212s-1.9-47.2,13.4-62.4c13.7-13.7,30.6-35.7,45.9-53.6s20.4-30.6,30.6-51
	s5.1-38.3-2.6-53.6S970.6,773.4,943.4,712.8z"/>
<path class="st3" d="M2116.1,359.4c-231.3-231.4-538.8-359-866.5-359.1C574.3,0.2,24.8,549.6,24.6,1224.8
	c-0.3,214.9,56.1,426.1,163.5,612.2L14.3,2471.5l649.4-170.3c179.6,97.8,380.9,149.1,585.4,149.1h0.5
	c675.1,0,1224.7-549.4,1225-1224.6C2474.7,898.5,2347.4,590.8,2116.1,359.4L2116.1,359.4z M1249.6,2243.5h-0.4
	c-182.3,0-361.3-49-518.3-141.9l-37.2-22.1l-385.4,101L411.3,1805l-24.2-38.5c-102-162.2-155.9-350-155.7-541.7
	c0.2-561.2,457-1017.8,1018.5-1017.8c272,0.1,527.6,106.1,719.8,298.5s298,448.1,297.9,720.1
	C2267.5,1786.9,1810.7,2243.5,1249.6,2243.5z"/>
</svg>
